HIERARCHY
ROOT Hips
{
	OFFSET 0.00 0.00 0.00
	CHANNELS 6 Xposition Yposition Zposition Yrotation Xrotation Zrotation
	JOINT LHipJoint
	{
		OFFSET	0.0000	0.0000	0.0000
		CHANNELS 3 Yrotation Xrotation Zrotation
		JOINT LeftUpLeg
		{
			OFFSET	1.0138	-0.0809	-0.0827
			CHANNELS 3 Yrotation Xrotation Zrotation
			JOINT LeftLeg
			{
				OFFSET	0.4110	-3.9095	0.3245
				CHANNELS 3 Yrotation Xrotation Zrotation
				JOINT LeftFoot
				{
					OFFSET	0.3810	-4.0555	-0.1470
					CHANNELS 3 Yrotation Xrotation Zrotation
					JOINT LeftToeBase
					{
						OFFSET	0.1396	-0.4462	1.3079
						CHANNELS 3 Yrotation Xrotation Zrotation
						End Site
						{
							OFFSET 0.0161 -0.0248 0.1809
						}
					}
				}
			}
		}
	}
	JOINT LowerBack
	{
		OFFSET	0.0000	0.7977	-0.3873
		CHANNELS 3 Yrotation Xrotation Zrotation
		JOINT Spine
		{
			OFFSET	0.0000	1.4131	0.1715
			CHANNELS 3 Yrotation Xrotation Zrotation
			JOINT Spine1
			{
				OFFSET	0.0000	1.4392	-0.1032
				CHANNELS 3 Yrotation Xrotation Zrotation
				JOINT LeftShoulder
				{
					OFFSET	0.2274	1.0382	0.4032
					CHANNELS 3 Yrotation Xrotation Zrotation
					JOINT LeftArm
					{
						OFFSET	1.4730	-0.2267	-0.0231
						CHANNELS 3 Yrotation Xrotation Zrotation
						JOINT LeftForeArm
						{
							OFFSET	1.6131	-1.8059	0.0081
							CHANNELS 3 Yrotation Xrotation Zrotation
							JOINT LeftHand
							{
								OFFSET	1.2197	-1.2423	1.6317
								CHANNELS 3 Yrotation Xrotation Zrotation
								JOINT LThumb
								{
									OFFSET	0.0109	-0.0753	0.4387
									CHANNELS 3 Yrotation Xrotation Zrotation
									End Site
									{
										OFFSET -0.2090 -0.0868 0.2097
									}
								}
								JOINT LeftFingerBase
								{
									OFFSET	0.1071	-0.1567	0.2607
									CHANNELS 3 Yrotation Xrotation Zrotation
									JOINT LeftHandFinger1
									{
										OFFSET	0.1706	-0.2492	0.6830
										CHANNELS 3 Yrotation Xrotation Zrotation
										End Site
										{
											OFFSET 0.0335 -0.1507 0.2071
										}
									}
								}
							}
						}
					}
				}
				JOINT Neck
				{
					OFFSET	0.0000	1.7498	0.2381
					CHANNELS 3 Yrotation Xrotation Zrotation
					JOINT Neck1
					{
						OFFSET	0.0000	0.5043	0.1959
						CHANNELS 3 Yrotation Xrotation Zrotation
						JOINT Head
						{
							OFFSET	0.0000	0.5044	0.1959
							CHANNELS 3 Yrotation Xrotation Zrotation
							End Site
							{
								OFFSET 0.0000 1.4798 -0.0693
							}
						}
					}
				}
				JOINT RightShoulder
				{
					OFFSET	-0.2274	1.0382	0.4032
					CHANNELS 3 Yrotation Xrotation Zrotation
					JOINT RightArm
					{
						OFFSET	-1.4730	-0.2267	-0.0231
						CHANNELS 3 Yrotation Xrotation Zrotation
						JOINT RightForeArm
						{
							OFFSET	-1.6131	-1.8059	0.0081
							CHANNELS 3 Yrotation Xrotation Zrotation
							JOINT RightHand
							{
								OFFSET	-1.2197	-1.2423	1.6317
								CHANNELS 3 Yrotation Xrotation Zrotation
								JOINT RThumb
								{
									OFFSET	-0.0109	-0.0753	0.4387
									CHANNELS 3 Yrotation Xrotation Zrotation
									End Site
									{
										OFFSET 0.2090 -0.0868 0.2097
									}
								}
								JOINT RightFingerBase
								{
									OFFSET	-0.1071	-0.1567	0.2607
									CHANNELS 3 Yrotation Xrotation Zrotation
									JOINT RightHandFinger1
									{
										OFFSET	-0.1706	-0.2492	0.6830
										CHANNELS 3 Yrotation Xrotation Zrotation
										End Site
										{
											OFFSET -0.0335 -0.1507 0.2071
										}
									}
								}
							}
						}
					}
				}
			}
		}
	}
	JOINT RHipJoint
	{
		OFFSET	0.0000	0.0000	0.0000
		CHANNELS 3 Yrotation Xrotation Zrotation
		JOINT RightUpLeg
		{
			OFFSET	-1.0138	-0.0809	-0.0827
			CHANNELS 3 Yrotation Xrotation Zrotation
			JOINT RightLeg
			{
				OFFSET	-0.4110	-3.9095	0.3245
				CHANNELS 3 Yrotation Xrotation Zrotation
				JOINT RightFoot
				{
					OFFSET	-0.3810	-4.0555	-0.1470
					CHANNELS 3 Yrotation Xrotation Zrotation
					JOINT RightToeBase
					{
						OFFSET	-0.1396	-0.4462	1.3079
						CHANNELS 3 Yrotation Xrotation Zrotation
						End Site
						{
							OFFSET -0.0161 -0.0248 0.1809
						}
					}
				}
			}
		}
	}
}
MOTION
Frames: 16
Frame Time: 0.0333333
-0.0179 8.7068 0.1359 -5.7123 -3.0746 1.1572 0.0000 -0.0000 0.0000 8.4861 -18.3877 -4.0766 16.4647 49.0133 10.8875 -0.1256 -0.2374 8.2587 -0.0000 -8.8382 -0.0000 0.0000 -0.0000 0.0000 3.4057 2.6577 -0.6470 6.8437 5.4761 -2.5487 0.3798 0.7619 -1.7783 14.1746 -7.6084 -29.8354 6.9729 8.9039 -1.5029 -11.4380 25.6007 25.3579 31.9094 8.1945 15.0856 -2.2421 19.1954 -7.2060 -3.0964 -7.3900 0.0922 -0.9282 -3.2474 1.6835 -0.9282 -3.2474 1.6835 -1.5194 -2.4973 -0.6582 -5.0102 0.4903 1.4692 3.8548 -13.8115 26.8190 -15.8564 18.1315 -0.4114 8.3879 20.8733 -23.1375 -27.9940 -2.6489 -12.2238 3.2593 20.0621 8.1008 6.8158 -3.0114 2.9158 0.0000 -0.0000 0.0000 -5.1456 -4.4622 7.7774 -13.2358 20.7622 -5.2596 -6.8956 -16.1127 -4.8988 -0.0000 -0.0000 -0.0000 
-0.0173 8.7394 0.0999 -6.9983 -2.7400 1.3895 0.0000 -0.0000 0.0000 8.8050 -20.3198 -4.5178 14.3779 42.6116 8.6555 -0.2241 -1.4611 6.8846 0.0000 -8.8476 0.0000 0.0000 -0.0000 0.0000 3.9377 2.8049 -0.8075 7.8156 5.7752 -2.5592 0.3800 0.7579 -1.8302 16.2679 -4.8713 -30.3394 7.0252 8.9608 -1.4959 -12.1487 24.1430 22.9827 31.1276 7.1803 14.4909 -1.1725 18.2750 -6.2767 -2.6571 -7.9319 0.4396 -0.9524 -3.3192 1.5435 -0.9524 -3.3192 1.5435 -1.8033 -2.6082 -0.5645 -4.9460 0.4883 1.2984 5.6783 -15.6815 26.1188 -14.1988 16.4880 0.0508 8.1883 21.0365 -21.7153 -27.9940 -2.6489 -12.2238 4.2108 20.8250 8.9351 7.7885 -1.9427 3.7165 0.0000 -0.0000 0.0000 -5.5304 -2.1025 6.9523 -12.9702 19.6337 -4.9076 -5.6036 -17.0156 -4.8843 0.0000 0.0000 0.0000 
-0.0153 8.7661 0.0703 -7.9570 -2.3572 1.5310 0.0000 -0.0000 0.0000 9.2064 -21.1458 -4.7259 12.5150 34.0280 6.4745 -0.2104 -2.1212 5.3457 0.0000 -10.0941 0.0000 0.0000 -0.0000 0.0000 4.3096 2.8868 -0.9442 8.5079 5.9227 -2.4488 0.3791 0.7580 -1.8987 18.0913 -2.1423 -30.7985 7.7492 9.7460 -1.3926 -12.8743 22.6401 20.4990 30.2095 6.1176 13.8006 -0.0594 17.2796 -5.3147 -2.2195 -8.4779 0.7841 -0.9793 -3.5016 1.4516 -0.9794 -3.5015 1.4516 -2.0411 -2.7624 -0.4691 -4.9601 0.4873 1.2054 7.4019 -16.8321 25.7315 -11.9976 14.2448 0.5922 7.4801 21.4276 -20.6777 -27.9940 -2.6489 -12.2238 5.1527 21.5547 9.7640 8.8889 -0.7688 4.6291 0.0000 -0.0000 0.0000 -5.9651 0.6284 6.1264 -12.4377 17.7714 -4.3561 -4.6070 -17.3998 -4.8100 -0.0000 0.0000 0.0000 
-0.0092 8.7801 0.0525 -8.5295 -1.9895 1.5865 0.0000 -0.0000 0.0000 9.7146 -20.7986 -4.9450 11.3479 23.2582 4.5185 -0.1262 -2.1627 3.8387 -0.0000 -10.7013 -0.0000 0.0000 -0.0000 0.0000 4.5288 2.8696 -1.0874 8.9464 5.8540 -2.2774 0.3779 0.7592 -1.9781 19.6910 0.6633 -31.0745 8.9212 11.0067 -1.2048 -13.5969 21.0644 17.8547 29.0192 4.9542 12.9044 1.1589 16.1446 -4.2677 -1.7802 -9.0319 1.1283 -1.0190 -3.7367 1.4375 -1.0190 -3.7367 1.4375 -2.2181 -2.8755 -0.4181 -5.0992 0.4810 1.2220 9.0996 -17.3950 25.6252 -9.8051 11.9481 1.0464 6.5378 21.6937 -19.8862 -27.9940 -2.6489 -12.2238 6.0627 22.2361 10.5675 10.2394 0.6218 5.7584 0.0000 -0.0000 0.0000 -6.5560 3.7120 5.2941 -11.7450 15.3226 -3.6917 -3.8094 -17.4672 -4.6201 0.0000 -0.0000 0.0000 
0.0052 8.7710 0.0478 -8.7492 -1.6832 1.6184 0.0000 -0.0000 0.0000 10.2960 -19.5153 -5.4316 11.2133 11.1309 2.6475 0.0331 -1.7602 2.5716 -0.0000 -10.8800 0.0000 0.0000 -0.0000 0.0000 4.6738 2.7339 -1.3338 9.2737 5.5320 -2.1608 0.3764 0.7613 -2.0634 21.2582 3.6392 -31.1041 9.9459 12.0974 -1.0198 -14.2632 19.4422 15.0732 27.6693 3.8832 11.8716 2.2873 15.0496 -3.3041 -1.4317 -9.4757 1.4002 -1.0814 -3.8968 1.5217 -1.0813 -3.8967 1.5217 -2.3246 -2.8047 -0.4759 -5.3997 0.4613 1.3628 10.6469 -17.4444 25.7596 -7.9831 9.9986 1.3572 5.6773 21.5225 -19.1404 -27.9940 -2.6489 -12.2238 6.7016 22.7011 11.1331 11.6629 2.0288 6.9591 0.0000 -0.0000 0.0000 -7.4148 6.8117 4.3322 -11.2161 13.0736 -3.1430 -2.9960 -17.7589 -4.1852 -0.0000 -0.0000 -0.0000 
0.0315 8.7318 0.0563 -8.8111 -1.4242 1.5010 0.0000 -0.0000 0.0000 10.7752 -18.8051 -6.1005 10.2355 2.2404 1.0794 2.9950 -2.2859 1.7594 0.0000 -10.6627 -0.0000 0.0000 -0.0000 0.0000 4.7643 2.4916 -1.4935 9.4775 5.0115 -2.0871 0.3748 0.7644 -2.1497 22.6975 6.6442 -30.9781 10.6235 12.8122 -0.8869 -14.8391 17.8312 12.2514 26.8082 3.3672 11.1898 2.8491 14.4884 -2.8267 -1.3077 -9.6346 1.4967 -1.1415 -3.9531 1.7027 -1.1415 -3.9531 1.7027 -2.3052 -2.5719 -0.6016 -5.9034 0.4280 1.6446 11.8746 -17.1956 26.0864 -6.6447 8.5463 1.5462 5.1369 21.1715 -18.6626 -27.9940 -2.6489 -12.2237 6.8335 22.7956 11.2500 12.4668 2.7972 7.6414 0.0000 -0.0000 0.0000 -8.5846 9.6217 3.2889 -11.0488 11.6269 -2.8334 -2.1096 -18.2227 -3.4245 -0.0000 -0.3868 0.0000 
0.0704 8.6697 0.0771 -8.9292 -1.1399 1.3925 0.0000 -0.0000 0.0000 10.9653 -21.3274 -6.8779 10.3367 2.3332 1.2303 6.1124 -4.7847 3.4384 0.0000 -10.3301 0.0000 0.0000 -0.0000 0.0000 4.8245 2.2964 -1.5351 9.5942 4.6210 -2.1467 0.3731 0.7683 -2.2318 23.7561 8.9944 -31.0537 11.3281 13.5496 -0.7400 -15.3384 16.2720 9.5023 26.3921 3.4181 10.8131 2.8707 14.4666 -2.8084 -1.4100 -9.5035 1.4171 -1.1543 -4.0300 1.8260 -1.1543 -4.0300 1.8260 -2.1959 -2.4193 -0.6841 -6.3220 0.4028 1.8774 12.7343 -16.4934 26.4184 -5.4995 7.2923 1.6809 4.7078 20.7471 -18.4005 -27.9940 -2.6489 -12.2238 6.4832 22.5434 10.9397 12.7003 3.0169 7.8402 0.0000 -0.0000 0.0000 -9.2832 11.5775 2.1844 -11.1627 11.8097 -2.8733 -1.8418 -18.6603 -2.3507 0.0000 -2.2251 -0.0000 
0.1199 8.6050 0.0981 -9.3455 -0.8042 1.5592 0.0000 -0.0000 0.0000 10.6230 -21.2221 -7.5533 10.3344 2.5187 1.3395 8.2819 -6.7029 1.4786 0.0000 -9.8956 -0.0000 0.0000 -0.0000 0.0000 4.9016 2.1795 -1.6564 9.7184 4.3904 -2.3369 0.3713 0.7728 -2.3047 24.3499 10.5272 -31.3967 11.9482 14.1937 -0.6033 -15.7946 14.7775 6.9225 26.2245 3.8381 10.6002 2.5512 14.7874 -3.0797 -1.6643 -9.1791 1.2189 -1.1286 -4.1742 1.8536 -1.1286 -4.1742 1.8536 -2.0405 -2.3844 -0.7300 -6.5549 0.3885 2.0224 13.1646 -15.2664 26.8332 -4.4614 6.1476 1.7813 4.2703 20.3810 -18.4074 -27.9940 -2.6489 -12.2238 5.8202 22.0567 10.3531 12.5899 2.9132 7.7462 0.0000 -0.0000 0.0000 -9.6238 12.2570 0.7362 -11.7017 13.9636 -3.3598 -1.4080 -18.4452 -1.2440 -0.0000 -4.7696 0.0000 
0.1792 8.5473 0.1251 -10.0771 -0.4996 2.1528 0.0000 -0.0000 0.0000 10.2299 -19.6594 -8.4370 10.3793 2.6591 1.3889 9.2116 -3.8907 3.0441 0.0000 -9.3723 0.0000 0.0000 -0.0000 0.0000 5.0253 2.1501 -1.9226 9.9236 4.3496 -2.8269 0.3695 0.7777 -2.3634 24.5821 11.6061 -31.8370 11.7971 14.0372 -0.6373 -16.2419 13.3496 4.6027 26.2495 4.5535 10.5203 1.9560 15.3756 -3.5864 -2.0410 -8.7023 0.9242 -1.0894 -4.3681 1.8601 -1.0893 -4.3681 1.8601 -1.8489 -2.3508 -0.7594 -6.7259 0.3767 2.1663 13.0152 -13.5135 27.5048 -3.4685 5.0471 1.8581 3.7396 20.1652 -18.7845 -27.9940 -2.6489 -12.2238 4.9094 21.3686 9.5497 12.1955 2.5400 7.4109 0.0000 -0.0000 0.0000 -9.7996 12.7699 -1.2705 -12.1538 16.1703 -3.8558 -0.8722 -17.7045 -0.7182 0.0000 -8.2006 -0.0000 
0.2476 8.4955 0.1625 -10.8915 -0.3902 3.2529 0.0000 -0.0000 0.0000 10.4191 -20.0616 -10.0338 10.8937 6.9190 2.1956 8.8919 -2.5766 8.1126 0.0000 -8.7733 0.0000 0.0000 -0.0000 0.0000 5.1548 2.2091 -2.3394 10.1076 4.5215 -3.7770 0.3678 0.7829 -2.4030 24.6779 12.7778 -32.1598 10.2882 12.4591 -0.9537 -16.7038 12.0143 2.6404 26.4434 5.5214 10.5677 1.1161 16.1853 -4.3044 -2.5222 -8.0996 0.5459 -1.0433 -4.5208 1.9057 -1.0433 -4.5208 1.9057 -1.6079 -2.1606 -0.7432 -6.9094 0.3638 2.3379 12.2261 -11.4052 28.4947 -2.7119 4.2055 1.9037 3.1699 19.9654 -19.5466 -27.9940 -2.6489 -12.2238 3.8039 20.5020 8.5780 11.5614 1.9305 6.8731 0.0000 -0.0000 0.0000 -9.7835 12.5390 -3.8682 -12.7970 19.8128 -4.6873 -0.7554 -15.4909 0.0108 0.0000 -13.1054 -0.0000 
0.3234 8.4416 0.2075 -11.5003 -0.6473 4.6004 0.0000 -0.0000 0.0000 11.1748 -21.0813 -11.8096 11.9162 13.9138 3.6581 9.5605 -0.1448 8.5486 0.0000 -8.1119 -0.0000 0.0000 -0.0000 0.0000 5.1779 2.2945 -2.8047 10.0770 4.7500 -4.8325 0.3666 0.7885 -2.4184 24.7524 14.0480 -32.3214 7.8907 9.8989 -1.3713 -17.1875 10.8469 1.1417 26.7807 6.6946 10.7357 0.0644 17.1664 -5.2079 -3.0895 -7.3984 0.0976 -0.9825 -4.5165 1.9519 -0.9826 -4.5165 1.9519 -1.3346 -1.8029 -0.6794 -7.0053 0.3570 2.4325 10.9353 -9.2781 29.6605 -2.5299 4.0027 1.9130 2.7571 19.5564 -20.5512 -27.9940 -2.6489 -12.2237 2.5572 19.4821 7.4872 10.7357 1.1191 6.1758 0.0000 -0.0000 0.0000 -9.3965 10.9762 -6.5711 -14.0641 26.2148 -6.3471 -1.7461 -11.1941 -0.2848 -0.0000 -20.1856 -0.0000 
0.3997 8.4101 0.2430 -11.7391 -1.2881 5.9327 0.0000 -0.0000 0.0000 11.5084 -20.3615 -13.6825 12.7086 18.9282 4.7966 10.2933 0.3582 7.6785 0.0000 -7.4012 -0.0000 0.0000 -0.0000 0.0000 5.0349 2.4169 -3.2661 9.6990 5.0215 -5.7070 0.3655 0.7940 -2.4033 24.6054 14.8808 -32.4310 5.7582 7.5764 -1.6527 -17.7048 9.9219 0.2168 27.2374 8.0244 11.0172 -1.1653 18.2688 -6.2705 -3.7237 -6.6266 -0.4066 -0.8986 -4.3339 1.9275 -0.8985 -4.3339 1.9274 -1.0489 -1.3691 -0.6562 -6.9115 0.3660 2.3723 9.2938 -7.3434 30.7315 -3.0576 4.5904 1.8842 2.6403 18.9187 -21.6078 -27.9940 -2.6489 -12.2238 1.2203 18.3367 6.3240 9.7662 0.1407 5.3616 0.0000 -0.0000 0.0000 -8.6000 8.3449 -8.8169 -16.1534 34.3439 -8.9397 -3.6748 -4.7840 -2.3484 -0.0000 -26.4277 0.0000 
0.4667 8.4096 0.2633 -11.6789 -2.1326 6.8331 0.0000 -0.0000 0.0000 11.4214 -18.5144 -15.0430 13.3347 22.2887 5.6231 9.8318 -2.0511 6.8846 -0.0000 -6.6544 -0.0000 0.0000 -0.0000 0.0000 4.7958 2.5472 -3.5664 9.1158 5.2697 -6.1098 0.3650 0.7996 -2.3575 23.8635 14.7298 -32.5413 4.7290 6.4433 -1.7574 -18.2640 9.2806 -0.0430 27.7906 9.4614 11.4032 -2.5375 19.4434 -7.4633 -4.4051 -5.8112 -0.9519 -0.7831 -4.0906 1.8220 -0.7831 -4.0906 1.8220 -0.7111 -0.9398 -0.7474 -6.6594 0.3926 2.2461 7.3207 -5.4786 31.4458 -4.1129 5.7619 1.8105 2.7416 18.2382 -22.5826 -27.9940 -2.6489 -12.2238 -0.1593 17.0964 5.1312 8.6996 -0.9682 4.4716 0.0000 -0.0000 0.0000 -6.6359 4.8207 -9.6903 -19.1808 43.6731 -12.5899 -6.4382 1.4777 -6.2803 -0.0000 -25.6123 -0.0000 
0.5168 8.4438 0.2694 -11.4413 -2.8975 7.1181 0.0000 -0.0000 0.0000 11.2351 -15.2418 -15.5204 13.0122 22.1673 5.4423 8.7280 -4.9547 6.2345 0.0000 -5.8847 -0.0000 0.0000 -0.0000 0.0000 4.5262 2.6484 -3.6633 8.4799 5.4259 -5.9545 0.3647 0.8050 -2.2864 22.4106 13.3563 -32.5852 5.0302 6.7756 -1.7289 -18.8509 8.9391 0.4063 28.4178 10.9560 11.8814 -4.0130 20.6438 -8.7538 -5.1137 -4.9787 -1.5225 -0.6259 -3.9003 1.6732 -0.6258 -3.9003 1.6732 -0.2396 -0.6728 -0.9130 -6.3428 0.4237 2.1747 5.1041 -3.5346 31.6679 -5.5020 7.2950 1.6806 2.8836 17.6592 -23.4532 -27.9940 -2.6489 -12.2238 -1.5384 15.7951 3.9470 7.5803 -2.1691 3.5446 0.0000 -0.0000 0.0000 -4.0205 0.3549 -9.1132 -23.6263 52.5148 -17.4997 -7.7751 5.5647 -7.7754 -0.0000 -14.3169 0.0000 
0.5484 8.4978 0.2680 -10.9257 -3.3916 6.7673 0.0000 -0.0000 0.0000 11.5075 -12.1093 -15.3717 13.0574 22.0250 5.3806 6.9476 -7.2199 6.2527 0.0000 -5.1052 0.0000 0.0000 -0.0000 0.0000 4.1298 2.6818 -3.4846 7.6572 5.4422 -5.3614 0.3648 0.8103 -2.1962 20.5152 10.9519 -32.4798 6.3746 8.2515 -1.5802 -19.4202 8.9198 1.5412 29.0967 12.4586 12.4359 -5.5487 21.8267 -10.1047 -5.8284 -4.1548 -2.1018 -0.4157 -3.7067 1.4986 -0.4156 -3.7067 1.4986 0.4132 -0.7431 -1.0806 -5.9993 0.4489 2.1318 2.9098 -1.6176 31.4151 -7.2094 9.1610 1.4705 2.9547 17.2110 -24.3568 -27.9940 -2.6489 -12.2238 -2.8783 14.4698 2.8049 6.4495 -3.4213 2.6159 0.0000 -0.0000 0.0000 -2.3304 -4.0862 -7.8136 -28.4176 58.4841 -22.4517 -5.1965 5.6219 -6.7204 0.0000 -0.6327 -0.0000 
0.5675 8.5535 0.2597 -9.8781 -3.5931 6.0467 0.0000 -0.0000 0.0000 11.8491 -9.0719 -14.7340 12.8413 21.1805 5.0716 4.8224 -9.0447 6.4328 0.0000 -4.3291 -0.0000 0.0000 -0.0000 0.0000 3.4749 2.6209 -3.1506 6.3778 5.2711 -4.5194 0.3651 0.8153 -2.0927 18.4487 8.0235 -32.1279 8.1194 10.1456 -1.3361 -19.9097 9.2606 3.2794 29.8038 13.9199 13.0459 -7.0957 22.9527 -11.4730 -6.5275 -3.3644 -2.6717 -0.1623 -3.3760 1.3057 -0.1623 -3.3759 1.3057 1.2098 -1.0713 -1.2551 -5.6102 0.4726 2.0117 0.9604 0.1486 30.8064 -9.2107 11.3160 1.1545 2.9117 16.9039 -25.4601 -27.9940 -2.6489 -12.2238 -4.1445 13.1604 1.7342 5.3465 -4.6811 1.7179 0.0000 -0.0000 0.0000 -1.5394 -8.5934 -5.8320 -32.4349 61.4618 -26.5307 -4.6737 3.8145 -4.6578 0.0000 -0.0000 0.0000 
